<svg width="36" height="38" viewBox="0 0 36 38" fill="none" xmlns="http://www.w3.org/2000/svg">
<path d="M31.2188 4.51562C34.1719 7.11719 35.7891 12.8125 34.6641 21.8828C33.6094 30.6016 27 31.4453 25.875 31.8672C25.3125 32.0078 20.8828 33.1328 15.1172 32.6406C14.4844 33.4141 13.6406 34.3281 13.0078 35.0312C11.8828 36.2266 11.25 37.3516 10.0547 37C9.07031 36.6484 9.14062 35.1719 9.14062 35.1719V31.5859C0.703125 29.1953 0.84375 20.4062 0.914062 15.7656C0.984375 11.0547 1.89844 7.32812 4.5 4.72656C9.14062 0.507812 18.6328 1.07031 18.6328 1.07031C26.6484 1.07031 30.3047 3.74219 31.2188 4.51562ZM32.1328 21.1797C33.1172 13.6562 31.8516 8.52344 29.3203 6.34375C28.5469 5.71094 25.3125 3.60156 18.4922 3.60156C18.4922 3.60156 10.4062 3.03906 6.46875 6.625C4.28906 8.80469 3.58594 11.9688 3.51562 15.9062C3.44531 19.7734 3.02344 27.2266 10.125 29.1953C10.125 29.1953 10.125 34.75 10.125 35.2422C10.125 36.0156 10.5469 36.0156 10.8984 35.6641C12.0234 34.4688 15.6797 30.1094 15.6797 30.1094C20.6016 30.3906 24.4688 29.4062 24.8906 29.3359C25.875 28.9844 31.2891 28.4922 32.1328 21.1797ZM22.3594 15.5547C22.2891 13.5156 21.2344 12.3906 19.2656 12.25C18.6328 12.25 18.5625 13.1641 19.1953 13.1641C20.6719 13.3047 21.375 14.0078 21.5156 15.5547C21.5156 16.1875 22.4297 16.1172 22.3594 15.5547ZM23.8359 16.3281C23.8359 16.8906 24.75 16.9609 24.75 16.3281C24.8203 12.9531 22.6406 10.1406 18.5625 9.85938C17.9297 9.78906 17.8594 10.7031 18.4922 10.7734C22.0078 10.9844 23.9062 13.375 23.8359 16.3281ZM27.1406 17.2422C27.0703 11.125 22.9219 7.53906 17.7188 7.46875C17.1562 7.46875 17.1562 8.38281 17.7188 8.38281C22.3594 8.45312 26.1562 11.5469 26.2266 17.2422C26.2266 17.875 27.1406 17.875 27.1406 17.2422ZM26.2969 24.1328C26.6484 23.5 26.5781 22.9375 26.0859 22.5156C25.1719 21.6719 23.9062 20.7578 22.8516 20.1953C22.0781 19.7734 21.3047 20.0547 20.9531 20.4766L20.3203 21.3203C19.9688 21.7422 19.3359 21.6719 19.3359 21.6719C14.625 20.4766 13.3594 15.7656 13.3594 15.7656C13.3594 15.7656 13.3594 15.1328 13.7812 14.7812L14.625 14.0781C15.0469 13.7266 15.2578 12.9531 14.8359 12.1797C14.625 11.7578 14.1328 10.9844 13.7812 10.5625C13.4297 10 12.5156 9.01562 12.5156 9.01562C12.1641 8.45312 11.5312 8.38281 10.8984 8.73438H10.8281C9.49219 9.4375 8.01562 10.9141 8.50781 12.3203C8.50781 12.3203 8.85938 13.5859 10.3359 16.2578C11.0391 17.5938 11.8125 18.6484 12.5156 19.5625C13.2891 20.5469 14.3438 21.6016 15.4688 22.5156C17.7188 24.2734 21.1641 26.1016 22.6406 26.5234H22.7109C24.1172 27.0156 25.5938 25.5391 26.2969 24.2031V24.1328Z" fill="#BF13F5"/>
</svg>
