<svg width="36" height="37" viewBox="0 0 36 37" fill="none" xmlns="http://www.w3.org/2000/svg">
<path d="M18 0.5625C27.8438 0.5625 35.4375 7.80469 35.4375 17.5078C35.4375 29.8125 23.6953 36.7031 12.9375 33.75C12.3047 33.6094 12.2344 33.75 8.57812 35.3672C8.08594 35.5078 7.59375 35.5078 7.24219 35.2266C6.82031 35.0156 6.60938 34.5938 6.60938 34.1016C6.46875 30.8672 6.60938 30.5859 6.04688 30.0234C2.60156 27 0.5625 22.5703 0.5625 17.5078C0.5625 7.80469 8.15625 0.5625 18 0.5625ZM28.4766 13.6406C28.9688 12.8672 28.0547 11.9531 27.2812 12.5156L21.7969 16.6641C21.375 16.9453 20.8828 16.9453 20.5312 16.6641L16.4531 13.6406C15.8203 13.2188 15.1172 13.0078 14.4141 13.1484C13.6406 13.2891 13.0078 13.7109 12.6562 14.3438L7.52344 22.4297C7.03125 23.2031 7.94531 24.1172 8.71875 23.5547L14.2031 19.4062C14.625 19.125 15.1172 19.125 15.4688 19.4062L19.5469 22.4297C20.1797 22.8516 20.8828 23.0625 21.6562 22.9219C22.3594 22.7812 22.9922 22.3594 23.3438 21.7266L28.4766 13.6406Z" fill="#1C6AF2"/>
</svg>
