<svg width="69" height="22" viewBox="0 0 69 22" fill="none" xmlns="http://www.w3.org/2000/svg">
<g id="Talkr logo">
<path fill-rule="evenodd" clip-rule="evenodd" d="M16.8229 0.018679C11.0492 0.353912 6.47057 5.14222 6.47057 10.9999C6.47057 16.8581 11.0499 21.6466 16.8241 21.9812C22.5978 21.646 27.1765 16.8577 27.1765 11C27.1765 5.14187 22.5971 0.353299 16.8229 0.018679ZM12.9412 7.11768C12.2265 7.11768 11.6471 7.69707 11.6471 8.41179C11.6471 9.12651 12.2265 9.70591 12.9412 9.70591H22C22.7147 9.70591 23.2941 9.12651 23.2941 8.41179C23.2941 7.69707 22.7147 7.11768 22 7.11768H12.9412ZM12.2941 13.5883C12.2941 12.8736 12.8735 12.2942 13.5882 12.2942H18.1177C18.8324 12.2942 19.4118 12.8736 19.4118 13.5883C19.4118 14.303 18.8324 14.8824 18.1177 14.8824H13.5882C12.8735 14.8824 12.2941 14.303 12.2941 13.5883Z" fill="white"/>
<path d="M11.9739 0H11C4.92487 0 0 4.92487 0 11C0 17.0751 4.92487 22 11 22H11.9742C7.94363 19.9821 5.17645 15.8142 5.17645 10.9999C5.17645 6.18578 7.9435 2.01792 11.9739 0Z" fill="white"/>
<path fill-rule="evenodd" clip-rule="evenodd" d="M6.47057 10.9999C6.47057 4.9248 11.3954 0 17.4706 0C23.5457 0 28.4706 4.92487 28.4706 11C28.4706 17.0751 23.5457 22 17.4706 22C11.3954 22 6.47057 17.0751 6.47057 10.9999ZM11.6471 8.41179C11.6471 7.69707 12.2265 7.11768 12.9412 7.11768H22C22.7147 7.11768 23.2941 7.69707 23.2941 8.41179C23.2941 9.12651 22.7147 9.70591 22 9.70591H12.9412C12.2265 9.70591 11.6471 9.12651 11.6471 8.41179ZM13.5882 12.2942C12.8735 12.2942 12.2941 12.8736 12.2941 13.5883C12.2941 14.303 12.8735 14.8824 13.5882 14.8824H18.1177C18.8324 14.8824 19.4118 14.303 19.4118 13.5883C19.4118 12.8736 18.8324 12.2942 18.1177 12.2942H13.5882Z" fill="white"/>
<path d="M36.875 7.93559V6.08816H44.83V7.93559H41.9761V15.4999H39.7334V7.93559H36.875Z" fill="white"/>
<path d="M46.9704 15.6194C46.52 15.6194 46.1202 15.5444 45.7709 15.3942C45.4247 15.241 45.1505 15.0113 44.9483 14.7049C44.7491 14.3955 44.6496 14.0079 44.6496 13.5422C44.6496 13.1501 44.7185 12.8192 44.8564 12.5496C44.9942 12.28 45.1842 12.0609 45.4262 11.8924C45.6683 11.7239 45.9471 11.5967 46.2626 11.511C46.5782 11.4221 46.9152 11.3624 47.2737 11.3317C47.675 11.295 47.9982 11.2567 48.2433 11.2168C48.4884 11.1739 48.6661 11.1142 48.7764 11.0376C48.8898 10.958 48.9465 10.8461 48.9465 10.7021V10.6792C48.9465 10.4432 48.8653 10.261 48.7029 10.1323C48.5405 10.0036 48.3215 9.93927 48.0457 9.93927C47.7485 9.93927 47.5096 10.0036 47.3288 10.1323C47.148 10.261 47.0332 10.4387 46.9841 10.6654L44.9115 10.5918C44.9728 10.1629 45.1306 9.77995 45.3849 9.44294C45.6422 9.10287 45.9946 8.83633 46.4419 8.64331C46.8922 8.44723 47.433 8.34919 48.0641 8.34919C48.5145 8.34919 48.9296 8.40281 49.3095 8.51004C49.6894 8.61421 50.0203 8.76739 50.3022 8.9696C50.584 9.16874 50.8015 9.41384 50.9547 9.70489C51.111 9.99595 51.1891 10.3284 51.1891 10.7021V15.4999H49.0751V14.5165H49.02C48.8944 14.7554 48.7335 14.9576 48.5374 15.1231C48.3444 15.2885 48.1162 15.4126 47.8527 15.4953C47.5923 15.5781 47.2982 15.6194 46.9704 15.6194ZM47.6643 14.1488C47.9063 14.1488 48.1238 14.0998 48.3169 14.0018C48.5129 13.9037 48.6692 13.7689 48.7856 13.5974C48.902 13.4227 48.9602 13.2205 48.9602 12.9907V12.3198C48.8959 12.3535 48.8178 12.3841 48.7259 12.4117C48.637 12.4393 48.539 12.4653 48.4317 12.4898C48.3245 12.5143 48.2142 12.5358 48.1009 12.5542C47.9875 12.5725 47.8787 12.5894 47.7746 12.6047C47.5632 12.6384 47.3824 12.6905 47.2323 12.761C47.0852 12.8314 46.9719 12.9233 46.8922 13.0367C46.8156 13.147 46.7773 13.2787 46.7773 13.4319C46.7773 13.6648 46.8601 13.8425 47.0255 13.965C47.194 14.0876 47.4069 14.1488 47.6643 14.1488Z" fill="white"/>
<path d="M54.8104 6.08816V15.4999H52.5632V6.08816H54.8104Z" fill="white"/>
<path d="M58.2675 13.6479L58.2766 10.9687H58.5891L60.5744 8.4411H63.1204L60.17 12.0624H59.5772L58.2675 13.6479ZM56.2408 15.4999V6.08816H58.488V15.4999H56.2408ZM60.625 15.4999L58.7776 12.5679L60.2573 10.9733L63.2215 15.4999H60.625Z" fill="white"/>
<path d="M63.9246 15.4999V8.4411H66.1075V9.72787H66.1811C66.3097 9.26218 66.5196 8.91598 66.8107 8.68927C67.1017 8.45949 67.4402 8.3446 67.8263 8.3446C67.9304 8.3446 68.0377 8.35226 68.148 8.36758C68.2583 8.37983 68.3609 8.39974 68.4559 8.42732V10.3804C68.3486 10.3437 68.2077 10.3146 68.0331 10.2931C67.8615 10.2717 67.7083 10.261 67.5735 10.261C67.307 10.261 67.0665 10.3207 66.852 10.4402C66.6406 10.5566 66.4736 10.7205 66.3511 10.9319C66.2316 11.1402 66.1719 11.3853 66.1719 11.6672V15.4999H63.9246Z" fill="white"/>
</g>
</svg>
