<svg width="36" height="36" viewBox="0 0 36 36" fill="none" xmlns="http://www.w3.org/2000/svg">
<path d="M18 0.5625C27.5625 0.5625 35.4375 8.4375 35.4375 18C35.4375 27.6328 27.5625 35.4375 18 35.4375C8.36719 35.4375 0.5625 27.6328 0.5625 18C0.5625 8.4375 8.36719 0.5625 18 0.5625ZM26.0156 12.4453C26.0859 12.2344 26.0859 12.0234 26.0156 11.7422C26.0156 11.6016 25.875 11.3906 25.8047 11.3203C25.5938 11.1094 25.2422 11.1094 25.1016 11.1094C24.4688 11.1094 23.4141 11.4609 18.5625 13.5C16.875 14.2031 13.5 15.6094 8.4375 17.8594C7.59375 18.2109 7.17188 18.4922 7.10156 18.8438C7.03125 19.4062 7.94531 19.6172 9 19.9688C9.91406 20.25 11.1094 20.6016 11.7422 20.6016C12.3047 20.6016 12.9375 20.3906 13.6406 19.8984C18.3516 16.6641 20.8125 15.0469 20.9531 15.0469C21.0938 15.0469 21.2344 14.9766 21.3047 15.0469C21.4453 15.1875 21.4453 15.3281 21.375 15.3984C21.3047 15.75 16.875 19.8281 16.5938 20.1094C15.6094 21.0938 14.4844 21.7266 16.2422 22.8516C17.7188 23.8359 18.5625 24.4688 20.1094 25.4531C21.0938 26.0859 21.8672 26.8594 22.8516 26.7891C23.3438 26.7188 23.8359 26.2969 24.0469 24.9609C24.6797 21.9375 25.8047 15.1875 26.0156 12.4453Z" fill="#489DFF"/>
</svg>
